<?xml version="1.0" encoding="utf-8"?>
<?xml-stylesheet type="text/xsl" href="rss1.xsl"?>
<rss version="2.0" xmlns:atom="http://www.w3.org/2005/Atom" xmlns:content="http://purl.org/rss/1.0/modules/content/" xmlns:dc="http://purl.org/dc/elements/1.1/" xmlns:media="http://search.yahoo.com/mrss/">
<channel>
 <title>Getty</title>
 <link>http://www.gettyimg.com/</link>
 <atom:link href="http://www.gettyimg.com/" rel="self" type="application/rss+xml" />

 
                <item>
                <title><![CDATA[【UPSCALED】Cher - Just Like Jesse James (Clean)(1080p AI Upscale)]]></title>
                <link><![CDATA[https://sharemania.us/threads/cher-just-like-jesse-james-clean-1080p-ai-upscale.224252/]]></link>
                <description><![CDATA[<article>
<blockquote class="messageText SelectQuoteContainer ugc baseHtml">
<img src="https://i.imgur.com/PLpXGLq.jpg" class="bbCodeImage LbImage" alt="[​IMG]" data-url="https://i.imgur.com/PLpXGLq.jpg" style=""><br>
<br>
<div class="ToggleTriggerAnchor bbCodeSpoilerContainer">
<button type="button" class="button bbCodeSpoilerButton ToggleTrigger Tooltip JsOnly" data-target="> .SpoilerTarget"><span>Spoiler: <span class="SpoilerTitle">MediaInfo</span></span></button>
<div class="SpoilerTarget bbCodeSpoilerText">General<br>
Complete name : D:\TMNGWY\Cher - Just Like Jesse James (Clean)(1080p AI Upscale).mp4<br>
Format : MPEG-4<br>
Format profile : Base Media<br>
Codec ID : isom (isom/iso2/avc1/mp41)<br>
File size : 710 MiB<br>
Duration : 2 min 47 s<br>
Overall bit rate mode : Variable<br>
Overall bit rate : 35.5 Mb/s<br>
Encoded date : UTC 2023-06-30 17:23:52<br>
Tagged date : UTC 2023-06-30 17:23:52<br>
<br>
Video<br>
ID : 1<br>
Format : AVC<br>
Format/Info : Advanced Video Codec<br>
Format profile : High@L4.2<br>
Format settings, CABAC : Yes<br>
Format settings, RefFrames : 4 frames<br>
Codec ID : avc1<br>
Codec ID/Info : Advanced Video Coding<br>
Duration : 2 min 47 s<br>
Bit rate mode : Variable<br>
Bit rate : 35.2 Mb/s<br>
Maximum bit rate : 40.0 Mb/s<br>
Width : 1 920 pixels<br>
Height : 1 080 pixels<br>
Display aspect ratio : 1.896<br>
Frame rate mode : Constant<br>
Frame rate : 50.000 FPS<br>
Color space : YUV<br>
Chroma subsampling : 4:2:0<br>
Bit depth : 8 bits<br>
Scan type : Progressive<br>
Bits/(Pixel*Frame) : 0.340<br>
Stream size : 704 MiB (99%)<br>
Encoded date : UTC 2023-06-30 17:23:52<br>
Tagged date : UTC 2023-06-30 17:23:52<br>
<br>
Audio<br>
ID : 2<br>
Format : AAC<br>
Format/Info : Advanced Audio Codec<br>
Format profile : LC<br>
Codec ID : 40<br>
Duration : 2 min 47 s<br>
Source duration : 2 min 47 s<br>
Bit rate mode : Constant<br>
Bit rate : 322 kb/s<br>
Channel(s) : 2 channels<br>
Channel positions : Front: L R<br>
Sampling rate : 48.0 kHz<br>
Frame rate : 46.875 FPS (1024 SPF)<br>
Compression mode : Lossy<br>
Stream size : 6.44 MiB (1%)<br>
Source stream size : 6.44 MiB (1%)<br>
Default : Yes<br>
Alternate group : 1<br>
Encoded date : UTC 2023-06-30 17:23:52<br>
Tagged date : UTC 2023-06-30 17:23:52</div>
</div><br>
<div class="bbCodeBlock bbCodeVfcHH HiddenContent">
<div class="attribution type">Hidden Content:</div>
<blockquote>You must either reply or click 'Like' to see the hidden information contained here.</blockquote>
</div>
<div class="messageTextEndMarker">&nbsp;</div>
</blockquote>
</article>]]></description>
                <author><![CDATA[garry19877]]></author>
                </item>

                
                <item>
                <title><![CDATA[【Cinema Center】MOVIE - Scream VI (2023) 2160p BluRay DV HDR10 AAC 7.1]]></title>
                <link><![CDATA[https://sharemania.us/threads/scream-vi-2023-2160p-bluray-dv-hdr10-aac-7-1.224251/]]></link>
                <description><![CDATA[<article>
<blockquote class="messageText SelectQuoteContainer ugc baseHtml">
<img src="https://images2.imgbox.com/b8/a3/XN99nIce_o.jpg" class="bbCodeImage LbImage" alt="[​IMG]" data-url="https://images2.imgbox.com/b8/a3/XN99nIce_o.jpg" style=""><br>
<div class="ToggleTriggerAnchor bbCodeSpoilerContainer">
<button type="button" class="button bbCodeSpoilerButton ToggleTrigger Tooltip JsOnly" data-target="> .SpoilerTarget"><span>Spoiler</span></button>
<div class="SpoilerTarget bbCodeSpoilerText">
<div class="bbCodeBlock bbCodeCode">
<div class="type">Code:</div>
<pre>General
File size : 3.13 GB
Duration : 2h 02mn 31sc
IMDB : https://www.imdb.com/title/tt17663992/
Source : Scream VI 2023 2160p UHD BluRay REMUX DV HDR HEVC Atmos-TRiToN | 68.5 GB

Video
Format : HEVC
Format/Info : High Efficiency Video Coding
Format profile : Main [email protected]@Main
HDR format : Dolby Vision, Version 1.0, dvhe.08.06, BL+RPU, HDR10 compatible / SMPTE ST 2086, HDR10 compatible
Width : 3 840 pixels
Height : 1 608 pixels
Display aspect ratio : 2.40:1
Frame rate mode : Constant
Frame rate : 23.976 (24000/1001) FPS
Color space : YUV
Chroma subsampling : 4:2:0
Bit depth : 10 bits
Default : Yes
Forced : No

Audio
Format : AAC
Format/Info : HE-AAC
Channel(s) : 8 Channels
Language : English
Default : Yes
Forced : No

Text
Format : UTF-8
Language : English
Default : Yes
Forced : No</pre>
</div></div>
</div><div style="text-align: center"><b>
<div class="bbCodeBlock bbCodeVfcHH HiddenContent">
<div class="attribution type">Hidden Content:</div>
<blockquote>You must reply before you can see the hidden data contained here.</blockquote>
</div></b><br>
<img src="https://images2.imgbox.com/4a/3f/0z6lHGL4_o.png" class="bbCodeImage LbImage" alt="[​IMG]" data-url="https://images2.imgbox.com/4a/3f/0z6lHGL4_o.png" style=""><br>
<img src="https://images2.imgbox.com/b8/97/QAj26d1j_o.png" class="bbCodeImage LbImage" alt="[​IMG]" data-url="https://images2.imgbox.com/b8/97/QAj26d1j_o.png" style=""><b>Small file, great quality.</b>​</div>
<div class="messageTextEndMarker">&nbsp;</div>
</blockquote>
</article>]]></description>
                <author><![CDATA[Cauã]]></author>
                </item>

                </channel></rss>